<svg xmlns="http://www.w3.org/2000/svg" xmlns:xlink="http://www.w3.org/1999/xlink" width="511" height="518" viewBox="0 0 511 518">
  <defs>
    <clipPath id="clip-icon1">
      <rect width="511" height="518"/>
    </clipPath>
  </defs>
  <g id="icon1" clip-path="url(#clip-icon1)">
    <g id="medical-records" transform="translate(-382.215 -152)">
      <g id="Group_1" data-name="Group 1" transform="translate(197.715 -402)">
        <path id="Path_8" data-name="Path 8" d="M382.365,185.414a55.819,55.819,0,0,1,36.454,13.6,55.819,55.819,0,0,1,36.454-13.6c31.859,0,57.779,27.19,57.779,60.611v1.512c0,30.021-22.6,58.517-41.568,77.136C456.42,339.464,430.119,360.3,418.818,360.3s-37.6-20.832-52.667-35.623c-18.964-18.618-41.568-47.114-41.568-77.136v-1.512c0-33.421,25.923-60.611,57.782-60.611Zm-34.352,62.123c0,36.05,55.766,80.691,70.806,87.68,15.042-6.989,70.806-51.63,70.806-87.68v-1.512c0-19.87-15.41-36.036-34.352-36.036a33.347,33.347,0,0,0-23.743,10.005,17.721,17.721,0,0,1-25.423,0,33.343,33.343,0,0,0-23.744-10.007c-18.942,0-34.352,16.166-34.352,36.036v1.512Z" transform="translate(-42.553 399.204)" fill="#fff"/>
      </g>
    </g>
    <g id="medical-report" transform="translate(0.001)">
      <path id="Path_9" data-name="Path 9" d="M204.586,491.992h-.2a10,10,0,0,0,0,20.008h.2a10,10,0,0,0,0-20.008Zm0,0" fill="#fff"/>
      <path id="Path_10" data-name="Path 10" d="M156.215,236a10,10,0,0,0,10,10.008l140.434.059h0a10,10,0,0,0,0-20.008L166.223,226A10.023,10.023,0,0,0,156.215,236Zm0,0" fill="#fff"/>
      <path id="Path_11" data-name="Path 11" d="M480.191,62.762c-18.7-9.363-44.02-6.062-56.25,18.359L408.8,111.355V87.105a9.961,9.961,0,0,0-2.687-6.8c-.023-.027-.035-.055-.059-.082l-73.105-77.1A10.125,10.125,0,0,0,325.636,0H38.792A38.842,38.842,0,0,0,0,38.8V473.168A38.855,38.855,0,0,0,38.792,512H164.546a10,10,0,0,0,0-20.008H38.792a18.828,18.828,0,0,1-18.785-18.824V38.8a18.815,18.815,0,0,1,18.785-18.8H315.687V60.234a36.914,36.914,0,0,0,36.867,36.875h36.238v54.207l-80.82,161.4a9.874,9.874,0,0,0-1.324-.1l-140.434.027a10,10,0,0,0,0,20.008l136.559-.027-5.359,66.648-131.2.051a10,10,0,0,0,0,20.008h0l140.414-.055h.012a10.005,10.005,0,0,0,6.613-2.5l64.18-56.52a9.97,9.97,0,0,0,2.328-3.027h0l.047-.09.035-.07,8.938-17.844V473.164a18.826,18.826,0,0,1-18.785,18.824H244.254a10,10,0,1,0,0,20.008H370.008a38.861,38.861,0,0,0,38.8-38.832V299.281l90.379-180.457c12.23-24.438-.3-46.7-18.992-56.063ZM352.554,77.1A16.885,16.885,0,0,1,335.695,60.23V35.094L375.527,77.1ZM318.6,385.418l3.684-45.809,30.8,15.441ZM481.293,109.863,366.367,339.328l-39.437-19.773L407.593,158.46c0-.012.012-.023.016-.035l34.223-68.344c7.633-15.242,22.074-13.1,29.4-9.43s17.7,13.953,10.063,29.211Zm0,0" fill="#fff"/>
      <path id="Path_12" data-name="Path 12" d="M128.789,287.891a10,10,0,0,0-13.953,2.34L85.477,331.4l-8.055-7.137a10,10,0,0,0-13.27,14.977l16.379,14.512a10,10,0,0,0,14.777-1.68l35.816-50.227a10.008,10.008,0,0,0-2.336-13.957Zm0,0" fill="#fff"/>
      <path id="Path_13" data-name="Path 13" d="M128.785,366.152a10,10,0,0,0-13.953,2.34L85.48,409.683l-8.051-7.148A10,10,0,1,0,64.144,417.5l16.375,14.543a10.015,10.015,0,0,0,6.645,2.52,9.872,9.872,0,0,0,1.125-.062,9.982,9.982,0,0,0,7.02-4.133l35.816-50.258a10,10,0,0,0-2.34-13.953Zm0,0" fill="#fff"/>
      <path id="Path_14" data-name="Path 14" d="M64.145,260.945,80.52,275.484a10.019,10.019,0,0,0,6.645,2.523,9.872,9.872,0,0,0,1.125-.062,10,10,0,0,0,7.02-4.137l35.816-50.254a10,10,0,0,0-16.293-11.613L85.477,253.129l-8.051-7.145a10,10,0,1,0-13.281,14.961Zm0,0" fill="#fff"/>
    </g>
    <path id="Path_19" data-name="Path 19" d="M229.14,189.672h-10.3a5.687,5.687,0,0,0-5.005,2.993l-7.479,13.881-12.96-38.973c-1.431-4.842-8.692-5.195-10.59-.523l-10.089,22.623H162.025a5.687,5.687,0,0,0-5.143,3.266l-3.507,7.442-10.2-29.832c-1.636-5.338-9.868-4.9-10.928.583l-4.21,18.541H118.4a5.7,5.7,0,0,0,0,11.405h14.172a5.692,5.692,0,0,0,5.547-4.437l.777-3.422,8.254,24.14c1.452,4.751,8.55,5.149,10.525.587l7.951-16.869H176.4A5.687,5.687,0,0,0,181.6,197.7l5.628-12.62,12.493,37.568c1.377,4.642,8.236,5.251,10.4.906l12.113-22.479h6.91a5.7,5.7,0,0,0,0-11.406Z" transform="translate(17.193 -88.498)" fill="#fff"/>
  </g>
</svg>
